max v2;#N vpatcher 40 55 523 481;#P window setfont "Sans Serif" 9.;#P window linecount 1;#P comment 269 357 109 196617 contact@tommays.net;#P comment 269 344 100 196617 patch by Tom Mays;#P window setfont Times 9.;#P message 348 64 43 1310729 $1;#P newex 348 41 43 1310729 loadbang;#N comlet output 0. to 1.;#P outlet 86 379 15 0;#N comlet input 0. to 1.;#P inlet 86 84 15 0;#P window setfont "Sans Serif" 9.;#P flonum 269 200 35 9 0 0 0 3 0 0 0 221 221 221 222 222 222 0 0 0;#P newex 56 270 100 196617 expr pow($f1\\\,$f2);#P newex 269 143 35 196617 abs 0.;#P newex 230 121 49 196617 t f f;#P newex 230 166 27 196617 + 2;#P newex 230 145 27 196617 < 0.;#P newex 197 121 27 196617 1;#P newex 197 100 43 196617 sel 0.;#P newex 86 326 28 196617 !- 1.;#P newex 86 246 28 196617 !- 1.;#P flonum 86 106 61 9 0 0 0 3 0 0 0 221 221 221 222 222 222 0 0 0;#P number 26 206 26 9 0 0 0 3 0 0 0 221 221 221 222 222 222 0 0 0;#P newex 26 225 70 196617 gate 3;#P flonum 86 355 64 9 0 0 0 3 0 0 0 221 221 221 222 222 222 0 0 0;#N comlet curve (-1. <= x <= 1.);#P inlet 197 40 15 0;#P flonum 197 80 35 9 0 0 0 3 0 0 0 221 221 221 222 222 222 0 0 0;#P flonum 176 254 46 9 0 0 0 3 0 0 0 221 221 221 222 222 222 0 0 0;#P newex 176 233 132 196617 expr pow(2\\\,($f1*15)/2.);#P newex 86 305 100 196617 expr pow($f1\\\,$f2);#P comment 104 290 72 196617 log/exp curve;#P comment 200 220 65 196617 scale control;#P window linecount 3;#P comment 213 40 125 196617 0<x<=1 = exponential \; -1<=x<0 = logarithmic \; 0 = linear;#P window setfont Times 9.;#P window linecount 1;#P comment 276 291 100 1310729 arg 1 : initial curve value;#P connect 16 0 11 0;#P connect 18 0 11 0;#P connect 11 0 10 0;#P connect 10 1 21 0;#P connect 23 0 12 0;#P connect 12 0 10 1;#P connect 10 2 13 0;#P connect 13 0 4 0;#P connect 4 0 14 0;#P connect 14 0 9 0;#P fasten 10 0 9 0 31 350 91 350;#P fasten 21 0 9 0 61 350 91 350;#P connect 9 0 24 0;#P connect 6 0 21 1;#P fasten 22 0 5 0 274 218 181 218;#P connect 5 0 6 0;#P connect 6 0 4 1;#P connect 8 0 7 0;#P connect 26 0 7 0;#P connect 7 0 15 0;#P connect 15 0 16 0;#P connect 15 1 19 0;#P connect 19 0 17 0;#P connect 17 0 18 0;#P connect 19 1 20 0;#P connect 20 0 22 0;#P connect 25 0 26 0;#P pop;