max v2;#N vpatcher 24 82 563 595;#P window setfont "Sans Serif" 9.;#P newex 16 82 40 196617 change;#P message 259 129 35 196617 set \$1;#P newex 66 230 95 196617 clip 1 1073741824;#P number 197 410 56 9 0 0 0 3 0 0 0 221 221 221 222 222 222 0 0 0;#P newex 197 388 95 196617 clip 1 1073741824;#P flonum 49 387 69 9 0 0 0 3 0 0 0 221 221 221 222 222 222 0 0 0;#N comlet max time;#P inlet 289 100 15 0;#N comlet min time;#P inlet 241 100 15 0;#N comlet max %;#P inlet 480 101 15 0;#N comlet min %;#P inlet 409 101 15 0;#N comlet max val;#P inlet 149 299 15 0;#N comlet min val;#P inlet 99 299 15 0;#P newex 396 123 86 196617 minmaxi;#P newex 49 209 27 196617 t b i;#P message 16 210 27 196617 stop;#P number 149 152 44 9 0 0 0 3 0 0 0 221 221 221 222 222 222 0 0 0;#P number 99 152 44 9 0 0 0 3 0 0 0 221 221 221 222 222 222 0 0 0;#P newex 16 157 40 196617 sel 0 1;#P newex 49 433 158 196617 pack 0. 0;#P outlet 49 457 15 0;#P newex 74 278 35 196617 del 1;#P number 99 256 46 9 0 0 0 3 0 0 0 221 221 221 222 222 222 0 0 0;#P newex 197 364 170 196617 expr $i1*(random($i2\\\,$i3))/100.;#P newex 357 343 27 196617 + 1;#P newex 49 187 45 196617 randomR;#P newex 16 62 470 196617 unpack 0 0. 0. 0 0 0 0;#P number 357 325 43 9 0 0 0 3 0 0 0 221 221 221 222 222 222 0 0 0;#P number 277 325 43 9 0 0 0 3 0 0 0 221 221 221 222 222 222 0 0 0;#P comment 284 310 78 196617 min and max %;#P flonum 99 332 47 9 0 0 0 3 0 0 0 221 221 221 222 222 222 0 0 0;#P flonum 149 332 47 9 0 0 0 3 0 0 0 221 221 221 222 222 222 0 0 0;#P comment 107 347 93 196617 min and max values;#P comment 113 166 85 196617 min and max time;#P toggle 16 102 15 0;#P comment 275 148 80 196617 on/off indicator;#N comlet on/off indicator;#P outlet 259 147 15 0;#P newex 49 364 51 196617 randomfR;#P message 50 37 134 196617 1 1. 2.5 1000 2000 50 100;#P inlet 16 16 15 0;#P comment 34 16 443 196617 [on/off] [min value] [max value] [min time] [max time] [min transistion %] [max transition %];#P newex 254 37 35 196617 r stop;#B color 11;#P message 231 37 14 196617 0;#P connect 3 0 16 0;#P fasten 4 0 16 0 55 57 21 57;#P fasten 0 0 16 0 236 57 21 57;#P connect 16 0 41 0;#P connect 41 0 8 0;#P connect 8 0 24 0;#P connect 24 0 27 0;#P connect 24 1 17 0;#P fasten 21 0 17 0 79 298 45 298 45 183 54 183;#P lcolor 13;#P connect 17 0 28 0;#P connect 28 0 5 0;#P connect 5 0 36 0;#P connect 36 0 23 0;#P connect 23 0 22 0;#P connect 25 0 17 1;#P connect 28 1 39 0;#P fasten 12 0 5 1 104 355 74 355;#P fasten 27 0 21 0 21 264 79 264;#P lcolor 5;#P connect 28 0 21 0;#P lcolor 5;#P connect 26 0 17 2;#P fasten 11 0 5 2 154 363 94 363;#P fasten 16 3 25 0 249 86 104 86;#P connect 34 0 25 0;#P fasten 39 0 20 0 71 252 104 252;#P connect 20 0 21 1;#P fasten 16 1 12 0 97 323 104 323;#P lcolor 1;#P connect 30 0 12 0;#P fasten 16 4 26 0 325 93 154 93;#P connect 35 0 26 0;#P fasten 16 2 11 0 173 323 154 323;#P lcolor 1;#P connect 31 0 11 0;#P fasten 20 0 19 0 104 274 202 274;#P connect 19 0 37 0;#P connect 37 0 38 0;#P connect 38 0 23 1;#P fasten 1 0 0 0 259 57 249 57 249 34 236 34;#P connect 8 0 40 0;#P connect 40 0 6 0;#P fasten 29 0 14 0 401 170 282 170;#P connect 14 0 19 1;#P fasten 29 1 15 0 477 218 362 218;#P connect 15 0 18 0;#P connect 18 0 19 2;#P connect 16 5 29 0;#P connect 32 0 29 0;#P connect 16 6 29 1;#P connect 33 0 29 1;#P pop;