max v2;#N vpatcher 29 128 590 665;#P origin 0 -7;#P window setfont "Sans Serif" 9.;#P window linecount 1;#P comment 415 487 109 196617 contact@tommays.net;#P comment 415 474 100 196617 patch by Tom Mays;#P flonum 87 208 35 9 0 0 0 3 0 0 0 221 221 221 222 222 222 0 0 0;#P button 479 138 15 0;#N comlet init;#P inlet 479 120 15 0;#N comlet curve (-1. <= x <= 1.);#P inlet 424 21 15 0;#P window linecount 3;#P comment 432 38 111 196617 0<x<=1 = exponential \; -1<=x<0 = logarithmic \; 0 = linear;#P window linecount 1;#P newex 87 282 48 196617 explinlog;#B color 6;#P newex 130 73 89 196617 route int float list;#P flonum 87 260 47 9 0 0 0 3 0 0 0 221 221 221 222 222 222 0 0 0;#P newex 118 141 45 196617 minmaxf;#P newex 273 380 106 196617 minmaxf;#P newex 87 186 60 196617 clip 0. 127.;#P newex 306 115 45 196617 loadbang;#P newex 306 202 116 196617 unpack 0. 0. 0. 0. 0.;#P message 306 183 197 196617 $1 $2 $3 $4 $5;#P flonum 87 112 35 9 0 0 0 3 0 0 0 221 221 221 222 222 222 0 0 0;#P flonum 252 112 35 9 0 0 0 3 0 0 0 221 221 221 222 222 222 0 0 0;#P flonum 130 112 35 9 0 0 0 3 0 0 0 221 221 221 222 222 222 0 0 0;#P newex 87 412 196 196617 clip 0. 127.;#P flonum 369 291 68 9 0 0 0 3 0 0 0 221 221 221 222 222 222 0 0 0;#P flonum 273 291 68 9 0 0 0 3 0 0 0 221 221 221 222 222 222 0 0 0;#N comlet output max;#P inlet 369 271 15 0;#P comment 385 271 58 196617 output max;#N comlet output min;#P inlet 273 271 15 0;#P comment 289 271 55 196617 output min;#P newex 87 384 114 196617 scale 0. 1. 0. 127.;#N comlet input max;#P inlet 252 21 15 0;#P comment 268 21 52 196617 input max;#P newex 87 228 99 196617 scale 0. 127. 0. 1.;#P flonum 87 463 35 9 0 0 0 3 0 0 0 221 221 221 222 222 222 0 0 0;#N comlet int value out;#P outlet 162 482 15 0;#P window linecount 2;#P comment 178 482 49 196617 int value out;#P window linecount 1;#P newex 162 443 32 196617 + 0.5;#P number 162 463 35 9 0 0 0 3 0 0 0 221 221 221 222 222 222 0 0 0;#N comlet input min or [min/max in] [min/max out] [curve] list;#P inlet 130 21 15 0;#N comlet float value out;#P outlet 87 482 15 0;#N comlet value in;#P inlet 87 21 15 0;#P flonum 87 357 64 9 0 0 0 3 0 0 0 221 221 221 222 222 222 0 0 0;#P flonum 424 227 35 9 0 0 0 3 0 0 0 221 221 221 222 222 222 0 0 0;#P window linecount 2;#P comment 103 482 49 196617 float value out;#P window linecount 4;#P comment 145 21 82 196617 input min or [min/max in] [min/max out] [curve] list;#P window linecount 1;#P comment 43 21 43 196617 value in;#P window linecount 4;#P comment 419 335 100 196617 improved logarithmic curve. still not same scale as curve~;#P window linecount 1;#P comment 495 120 23 196617 init;#P connect 7 0 28 0;#P connect 28 0 32 0;#P connect 32 0 42 0;#P connect 42 0 15 0;#P connect 15 0 35 0;#P connect 35 0 37 0;#P connect 37 0 6 0;#P connect 6 0 18 0;#P connect 18 0 25 0;#P connect 25 0 14 0;#P connect 14 0 8 0;#P fasten 26 0 15 1 135 165 109 165;#P connect 34 0 32 1;#P connect 26 0 34 0;#P fasten 27 0 15 2 257 178 126 178;#P connect 5 0 37 1;#P connect 9 0 36 0;#P connect 36 1 26 0;#P connect 36 0 26 0;#P connect 30 0 26 0;#P lcolor 1;#P connect 34 1 32 2;#P connect 23 0 18 3;#P connect 27 0 34 1;#P fasten 25 0 11 0 92 436 167 436;#P connect 11 0 10 0;#P connect 10 0 13 0;#P connect 24 0 18 4;#P fasten 33 0 25 1 278 405 185 405;#P connect 30 1 27 0;#P lcolor 1;#P connect 17 0 27 0;#P fasten 30 2 23 0 363 288 278 288;#P lcolor 1;#P connect 20 0 23 0;#P connect 23 0 33 0;#P fasten 33 1 25 2 374 410 278 410;#P connect 41 0 29 0;#P connect 31 0 29 0;#P connect 36 2 30 0;#P connect 29 0 30 0;#P fasten 30 3 24 0 389 288 374 288;#P lcolor 1;#P connect 22 0 24 0;#P connect 24 0 33 1;#P connect 30 4 5 0;#P lcolor 1;#P connect 39 0 5 0;#P connect 40 0 41 0;#P pop;