max v2;#N vpatcher 40 55 251 207;#N comlet max out;#P outlet 107 103 15 0;#N comlet min out;#P outlet 28 103 15 0;#N comlet in B;#P inlet 148 47 15 0;#N comlet in A;#P inlet 28 47 15 0;#P window setfont "Sans Serif" 9.;#P window linecount 1;#P newex 107 77 51 196617 maximum;#P newex 28 77 48 196617 minimum;#P connect 2 0 0 0;#P connect 0 0 4 0;#P connect 3 0 0 1;#P connect 2 0 1 0;#P connect 1 0 5 0;#P connect 3 0 1 1;#P pop;