max v2;#N vpatcher 484 115 957 458;#P window setfont "Lucida Grande" 9.;#P window linecount 2;#P newex 91 240 32 9 / 100.;#P window linecount 1;#P newex 149 152 33 9 * 100.;#P window setfont "Sans Serif" 9.;#P newex 17 23 45 196617 loadbang;#P message 17 42 111 196617 $1 $2;#P newex 225 131 60 196617 minimum 0.;#P window setfont "Lucida Grande" 9.;#P newex 149 173 28 9 abs;#P newex 149 131 61 9 - 0.;#P newex 149 194 28 9 + 1;#P window linecount 2;#P newex 149 75 61 9 unpack 0. 0.;#P inlet 149 43 15 0;#P inlet 221 43 15 0;#P window setfont "Sans Serif" 10.;#P window linecount 1;#P comment 239 43 31 196618 max;#P window linecount 2;#P comment 165 38 49 196618 min or minmax;#P window setfont "Lucida Grande" 9.;#P window linecount 1;#P newex 221 75 27 9 t b f;#P outlet 91 288 15 0;#P inlet 91 195 15 0;#P newex 91 264 144 9 + 1.;#P window setfont "Sans Serif" 14.;#P window linecount 2;#P comment 293 215 100 196622 random with Range;#P window setfont "Lucida Grande" 9.;#P window linecount 1;#P newex 91 217 68 9 random 101;#P window setfont "Sans Serif" 10.;#P window linecount 4;#P comment 294 157 131 196618 arg 1 : min random value \; arg 2 : max random value \; (par defaut \, 100 to 200);#P connect 17 0 16 0;#P connect 4 0 1 0;#P connect 1 0 19 0;#P connect 19 0 3 0;#P connect 3 0 5 0;#P connect 16 0 11 0;#P connect 10 0 11 0;#P connect 11 0 13 0;#P connect 6 0 13 0;#P connect 13 0 18 0;#P connect 18 0 14 0;#P connect 14 0 12 0;#P connect 12 0 1 1;#P connect 6 1 13 1;#P connect 11 1 13 1;#P connect 9 0 6 0;#P connect 11 0 15 0;#P connect 15 0 3 1;#P connect 11 1 15 1;#P connect 6 1 15 1;#P pop;