max v2;#N vpatcher 40 55 245 271;#P window setfont "Sans Serif" 9.;#P comment 43 171 109 196617 contact@tommays.net;#P comment 43 158 100 196617 patch by Tom Mays;#P newex 25 62 142 196617 bondo 2;#N comlet max out;#P outlet 104 134 15 0;#N comlet min out;#P outlet 25 134 15 0;#N comlet in B;#P inlet 157 35 15 0;#N comlet in A;#P inlet 25 35 15 0;#P newex 104 108 63 196617 maximum 0.;#P newex 25 108 60 196617 minimum 0.;#P connect 2 0 6 0;#P connect 6 0 0 0;#P connect 0 0 4 0;#P connect 6 1 0 1;#P connect 6 0 1 0;#P connect 1 0 5 0;#P connect 3 0 6 1;#P connect 6 1 1 1;#P pop;