{
	"patcher" : 	{
		"fileversion" : 1,
		"appversion" : 		{
			"major" : 6,
			"minor" : 1,
			"revision" : 7,
			"architecture" : "x86"
		}
,
		"rect" : [ 816.0, 422.0, 923.0, 423.0 ],
		"bglocked" : 0,
		"openinpresentation" : 0,
		"default_fontsize" : 12.0,
		"default_fontface" : 0,
		"default_fontname" : "Arial",
		"gridonopen" : 0,
		"gridsize" : [ 15.0, 15.0 ],
		"gridsnaponopen" : 0,
		"statusbarvisible" : 2,
		"toolbarvisible" : 1,
		"boxanimatetime" : 200,
		"imprint" : 0,
		"enablehscroll" : 1,
		"enablevscroll" : 1,
		"devicewidth" : 0.0,
		"description" : "",
		"digest" : "",
		"tags" : "",
		"boxes" : [ 			{
				"box" : 				{
					"annotation" : "none",
					"color" : [ 0.0, 0.572549, 0.0, 1.0 ],
					"fontname" : "Helvetica Neue",
					"fontsize" : 14.0,
					"id" : "obj-9",
					"maxclass" : "newobj",
					"numinlets" : 0,
					"numoutlets" : 0,
					"patching_rect" : [ 497.0, 366.0, 150.0, 23.0 ],
					"text" : "polymaper.model map"
				}

			}
, 			{
				"box" : 				{
					"id" : "obj-16",
					"maxclass" : "ezadc~",
					"numinlets" : 1,
					"numoutlets" : 2,
					"outlettype" : [ "signal", "signal" ],
					"patching_rect" : [ 406.0, 319.0, 45.0, 45.0 ]
				}

			}
, 			{
				"box" : 				{
					"fontname" : "Arial",
					"fontsize" : 12.0,
					"id" : "obj-5",
					"items" : "/activity",
					"maxclass" : "umenu",
					"numinlets" : 1,
					"numoutlets" : 3,
					"outlettype" : [ "int", "", "" ],
					"parameter_enable" : 0,
					"patching_rect" : [ 732.5, 298.0, 152.0, 20.0 ]
				}

			}
, 			{
				"box" : 				{
					"fontname" : "Arial",
					"fontsize" : 12.0,
					"id" : "obj-10",
					"maxclass" : "newobj",
					"numinlets" : 1,
					"numoutlets" : 1,
					"outlettype" : [ "clear" ],
					"patching_rect" : [ 732.5, 259.0, 132.0, 20.0 ],
					"text" : "j.makereturnmenu"
				}

			}
, 			{
				"box" : 				{
					"fontname" : "Arial",
					"fontsize" : 12.0,
					"id" : "obj-11",
					"items" : [ "/print", ",", "/host", ",", "/port", ",", "/sw" ],
					"maxclass" : "umenu",
					"numinlets" : 1,
					"numoutlets" : 3,
					"outlettype" : [ "int", "", "" ],
					"parameter_enable" : 0,
					"patching_rect" : [ 752.5, 227.0, 152.0, 20.0 ]
				}

			}
, 			{
				"box" : 				{
					"fontname" : "Arial",
					"fontsize" : 12.0,
					"id" : "obj-12",
					"maxclass" : "newobj",
					"numinlets" : 1,
					"numoutlets" : 1,
					"outlettype" : [ "clear" ],
					"patching_rect" : [ 752.5, 188.0, 132.0, 20.0 ],
					"text" : "j.makeparametermenu"
				}

			}
, 			{
				"box" : 				{
					"fontname" : "Arial",
					"fontsize" : 12.0,
					"id" : "obj-20",
					"items" : "<empty>",
					"maxclass" : "umenu",
					"numinlets" : 1,
					"numoutlets" : 3,
					"outlettype" : [ "int", "", "" ],
					"parameter_enable" : 0,
					"patching_rect" : [ 766.0, 160.0, 152.0, 20.0 ]
				}

			}
, 			{
				"box" : 				{
					"fontname" : "Arial",
					"fontsize" : 12.0,
					"id" : "obj-21",
					"maxclass" : "newobj",
					"numinlets" : 1,
					"numoutlets" : 1,
					"outlettype" : [ "clear" ],
					"patching_rect" : [ 766.0, 121.0, 125.0, 20.0 ],
					"text" : "j.makemessagemenu"
				}

			}
, 			{
				"box" : 				{
					"fontname" : "Arial",
					"fontsize" : 12.0,
					"id" : "obj-22",
					"items" : [ "/slider.1", ",", "/sine.1", ",", "/rand.2", ",", "/rand.1", ",", "/polymap" ],
					"maxclass" : "umenu",
					"numinlets" : 1,
					"numoutlets" : 3,
					"outlettype" : [ "int", "", "" ],
					"parameter_enable" : 0,
					"patching_rect" : [ 649.0, 91.0, 152.0, 20.0 ]
				}

			}
, 			{
				"box" : 				{
					"id" : "obj-35",
					"maxclass" : "button",
					"numinlets" : 1,
					"numoutlets" : 1,
					"outlettype" : [ "bang" ],
					"patching_rect" : [ 649.0, 17.0, 20.0, 20.0 ]
				}

			}
, 			{
				"box" : 				{
					"fontname" : "Arial",
					"fontsize" : 12.0,
					"id" : "obj-36",
					"maxclass" : "newobj",
					"numinlets" : 1,
					"numoutlets" : 1,
					"outlettype" : [ "" ],
					"patching_rect" : [ 649.0, 52.0, 122.0, 20.0 ],
					"text" : "j.makemodelmenu"
				}

			}
, 			{
				"box" : 				{
					"fontname" : "Arial",
					"fontsize" : 12.0,
					"id" : "obj-41",
					"maxclass" : "newobj",
					"numinlets" : 1,
					"numoutlets" : 0,
					"patcher" : 					{
						"fileversion" : 1,
						"appversion" : 						{
							"major" : 6,
							"minor" : 1,
							"revision" : 7,
							"architecture" : "x86"
						}
,
						"rect" : [ 1072.0, 468.0, 689.0, 428.0 ],
						"bglocked" : 0,
						"openinpresentation" : 0,
						"default_fontsize" : 12.0,
						"default_fontface" : 0,
						"default_fontname" : "Arial",
						"gridonopen" : 0,
						"gridsize" : [ 15.0, 15.0 ],
						"gridsnaponopen" : 0,
						"statusbarvisible" : 2,
						"toolbarvisible" : 1,
						"boxanimatetime" : 200,
						"imprint" : 0,
						"enablehscroll" : 1,
						"enablevscroll" : 1,
						"devicewidth" : 0.0,
						"description" : "",
						"digest" : "",
						"tags" : "",
						"boxes" : [ 							{
								"box" : 								{
									"fontname" : "Arial",
									"fontsize" : 12.0,
									"id" : "obj-7",
									"maxclass" : "newobj",
									"numinlets" : 1,
									"numoutlets" : 1,
									"outlettype" : [ "" ],
									"patching_rect" : [ 11.0, 229.0, 56.0, 20.0 ],
									"text" : "deferlow"
								}

							}
, 							{
								"box" : 								{
									"id" : "obj-6",
									"maxclass" : "button",
									"numinlets" : 1,
									"numoutlets" : 1,
									"outlettype" : [ "bang" ],
									"patching_rect" : [ 25.0, 164.0, 20.0, 20.0 ]
								}

							}
, 							{
								"box" : 								{
									"fontname" : "Arial",
									"fontsize" : 12.0,
									"id" : "obj-1",
									"maxclass" : "newobj",
									"numinlets" : 1,
									"numoutlets" : 2,
									"outlettype" : [ "bang", "bang" ],
									"patching_rect" : [ 11.0, 196.0, 191.0, 20.0 ],
									"text" : "b"
								}

							}
, 							{
								"box" : 								{
									"fontname" : "Arial",
									"fontsize" : 12.0,
									"id" : "obj-39",
									"maxclass" : "newobj",
									"numinlets" : 2,
									"numoutlets" : 2,
									"outlettype" : [ "bang", "" ],
									"patching_rect" : [ 11.0, 43.0, 138.0, 20.0 ],
									"text" : "sel 0"
								}

							}
, 							{
								"box" : 								{
									"fontname" : "Arial",
									"fontsize" : 12.0,
									"id" : "obj-35",
									"maxclass" : "newobj",
									"numinlets" : 1,
									"numoutlets" : 1,
									"outlettype" : [ "" ],
									"patching_rect" : [ 12.0, 365.0, 97.0, 20.0 ],
									"text" : "j.send sine.1:init"
								}

							}
, 							{
								"box" : 								{
									"fontname" : "Arial",
									"fontsize" : 12.0,
									"id" : "obj-30",
									"maxclass" : "newobj",
									"numinlets" : 1,
									"numoutlets" : 1,
									"outlettype" : [ "" ],
									"patching_rect" : [ 31.0, 335.0, 99.0, 20.0 ],
									"text" : "j.send rand.2:init"
								}

							}
, 							{
								"box" : 								{
									"fontname" : "Arial",
									"fontsize" : 12.0,
									"id" : "obj-20",
									"maxclass" : "newobj",
									"numinlets" : 1,
									"numoutlets" : 1,
									"outlettype" : [ "" ],
									"patching_rect" : [ 39.0, 305.0, 99.0, 20.0 ],
									"text" : "j.send rand.1:init"
								}

							}
, 							{
								"box" : 								{
									"fontname" : "Arial",
									"fontsize" : 12.0,
									"id" : "obj-10",
									"maxclass" : "newobj",
									"numinlets" : 1,
									"numoutlets" : 1,
									"outlettype" : [ "" ],
									"patching_rect" : [ 62.0, 275.0, 103.0, 20.0 ],
									"text" : "j.send slider.1:init"
								}

							}
, 							{
								"box" : 								{
									"fontname" : "Arial",
									"fontsize" : 12.0,
									"id" : "obj-16",
									"linecount" : 4,
									"maxclass" : "message",
									"numinlets" : 2,
									"numoutlets" : 1,
									"outlettype" : [ "" ],
									"patching_rect" : [ 183.0, 229.0, 239.0, 58.0 ],
									"text" : ";\rpolymap 0 /rand.1/val/map.1;\rpolymap 0 /slider.1/val/map.1;\rpolymap 0 /rand.2/val/map.1;\r"
								}

							}
, 							{
								"box" : 								{
									"fontname" : "Arial",
									"fontsize" : 12.0,
									"id" : "obj-52",
									"linecount" : 8,
									"maxclass" : "message",
									"numinlets" : 2,
									"numoutlets" : 1,
									"outlettype" : [ "" ],
									"patching_rect" : [ 130.0, 72.0, 518.0, 112.0 ],
									"text" : ";\rrand.1/sw 1;\rrand.2/sw 1;\rsine.1/sw 1;\rslider.1/sw 1;\rpolymap 1 /rand.1/val/map.1 /rand.1/val /sine.1/freq 0. 1. 100 5000 exponential base 2.718282;\rpolymap 1 /slider.1/val/map.1 /slider.1/val /sine.1/vol 0. 1 0 1 exponential base 2.718282;\rpolymap 1 /rand.2/val/map.1 /rand.2/val /slider.1/slider 0. 1. 0 1 exponential base 2.718282;\r"
								}

							}
, 							{
								"box" : 								{
									"comment" : "",
									"id" : "obj-40",
									"maxclass" : "inlet",
									"numinlets" : 0,
									"numoutlets" : 1,
									"outlettype" : [ "" ],
									"patching_rect" : [ 11.0, 6.0, 25.0, 25.0 ]
								}

							}
 ],
						"lines" : [ 							{
								"patchline" : 								{
									"destination" : [ "obj-16", 0 ],
									"disabled" : 0,
									"hidden" : 0,
									"source" : [ "obj-1", 1 ]
								}

							}
, 							{
								"patchline" : 								{
									"destination" : [ "obj-7", 0 ],
									"disabled" : 0,
									"hidden" : 0,
									"source" : [ "obj-1", 0 ]
								}

							}
, 							{
								"patchline" : 								{
									"destination" : [ "obj-1", 0 ],
									"disabled" : 0,
									"hidden" : 0,
									"source" : [ "obj-39", 0 ]
								}

							}
, 							{
								"patchline" : 								{
									"destination" : [ "obj-52", 0 ],
									"disabled" : 0,
									"hidden" : 0,
									"source" : [ "obj-39", 1 ]
								}

							}
, 							{
								"patchline" : 								{
									"destination" : [ "obj-39", 0 ],
									"disabled" : 0,
									"hidden" : 0,
									"source" : [ "obj-40", 0 ]
								}

							}
, 							{
								"patchline" : 								{
									"destination" : [ "obj-1", 0 ],
									"disabled" : 0,
									"hidden" : 0,
									"source" : [ "obj-6", 0 ]
								}

							}
, 							{
								"patchline" : 								{
									"destination" : [ "obj-10", 0 ],
									"disabled" : 0,
									"hidden" : 0,
									"source" : [ "obj-7", 0 ]
								}

							}
, 							{
								"patchline" : 								{
									"destination" : [ "obj-20", 0 ],
									"disabled" : 0,
									"hidden" : 0,
									"source" : [ "obj-7", 0 ]
								}

							}
, 							{
								"patchline" : 								{
									"destination" : [ "obj-30", 0 ],
									"disabled" : 0,
									"hidden" : 0,
									"source" : [ "obj-7", 0 ]
								}

							}
, 							{
								"patchline" : 								{
									"destination" : [ "obj-35", 0 ],
									"disabled" : 0,
									"hidden" : 0,
									"source" : [ "obj-7", 0 ]
								}

							}
 ]
					}
,
					"patching_rect" : [ 497.0, 329.5, 157.0, 20.0 ],
					"saved_object_attributes" : 					{
						"default_fontface" : 0,
						"default_fontname" : "Arial",
						"default_fontsize" : 12.0,
						"description" : "",
						"digest" : "",
						"fontface" : 0,
						"fontname" : "Arial",
						"fontsize" : 12.0,
						"globalpatchername" : "",
						"tags" : ""
					}
,
					"text" : "p mapping_command_lines"
				}

			}
, 			{
				"box" : 				{
					"fontname" : "Arial",
					"fontsize" : 24.0,
					"id" : "obj-38",
					"maxclass" : "textbutton",
					"mode" : 1,
					"numinlets" : 1,
					"numoutlets" : 3,
					"outlettype" : [ "", "", "int" ],
					"parameter_enable" : 0,
					"patching_rect" : [ 497.0, 285.5, 211.0, 33.0 ],
					"text" : "MAPPING IS OFF",
					"texton" : "MAPPING IS ON"
				}

			}
, 			{
				"box" : 				{
					"annotation" : "slider controler",
					"fontname" : "Arial",
					"fontsize" : 12.0,
					"id" : "obj-15",
					"maxclass" : "newobj",
					"numinlets" : 1,
					"numoutlets" : 1,
					"outlettype" : [ "" ],
					"patching_rect" : [ 340.0, 227.0, 116.0, 20.0 ],
					"text" : "slider.model slider.1"
				}

			}
, 			{
				"box" : 				{
					"annotation" : "none",
					"args" : [ "/slider.1", "/slider(view).1" ],
					"id" : "obj-14",
					"maxclass" : "bpatcher",
					"name" : "slider.view.maxpat",
					"numinlets" : 1,
					"numoutlets" : 0,
					"patching_rect" : [ 23.0, 202.0, 300.0, 70.0 ],
					"presentation_rect" : [ 24.0, 202.0, 300.0, 70.0 ]
				}

			}
, 			{
				"box" : 				{
					"annotation" : "none",
					"args" : [ "/rand.1", "/rand(view).1" ],
					"id" : "obj-13",
					"maxclass" : "bpatcher",
					"name" : "rand.view.maxpat",
					"numinlets" : 1,
					"numoutlets" : 0,
					"patching_rect" : [ 23.0, 20.0, 300.0, 70.0 ],
					"presentation_rect" : [ 30.0, 30.0, 300.0, 70.0 ]
				}

			}
, 			{
				"box" : 				{
					"annotation" : "none",
					"args" : [ "/sine.1", "/sine(view).1" ],
					"id" : "obj-8",
					"maxclass" : "bpatcher",
					"name" : "sine.view.maxpat",
					"numinlets" : 1,
					"numoutlets" : 0,
					"patching_rect" : [ 23.0, 319.0, 300.0, 70.0 ],
					"presentation_rect" : [ 15.0, 15.0, 300.0, 70.0 ]
				}

			}
, 			{
				"box" : 				{
					"fontname" : "Arial",
					"fontsize" : 12.0,
					"id" : "obj-7",
					"maxclass" : "newobj",
					"numinlets" : 2,
					"numoutlets" : 0,
					"patching_rect" : [ 352.0, 380.0, 37.0, 20.0 ],
					"text" : "dac~"
				}

			}
, 			{
				"box" : 				{
					"id" : "obj-4",
					"maxclass" : "gain~",
					"numinlets" : 2,
					"numoutlets" : 2,
					"outlettype" : [ "signal", "int" ],
					"parameter_enable" : 0,
					"patching_rect" : [ 352.0, 299.0, 30.0, 68.0 ]
				}

			}
, 			{
				"box" : 				{
					"annotation" : "generates sine tone with freq and vol",
					"fontname" : "Arial",
					"fontsize" : 12.0,
					"id" : "obj-3",
					"maxclass" : "newobj",
					"numinlets" : 1,
					"numoutlets" : 2,
					"outlettype" : [ "", "signal" ],
					"patching_rect" : [ 352.0, 271.0, 104.0, 20.0 ],
					"text" : "sine.model sine.1"
				}

			}
, 			{
				"box" : 				{
					"annotation" : "none",
					"args" : [ "/rand.2", "/rand(view).2" ],
					"id" : "obj-2",
					"maxclass" : "bpatcher",
					"name" : "rand.view.maxpat",
					"numinlets" : 1,
					"numoutlets" : 0,
					"patching_rect" : [ 23.0, 106.0, 300.0, 70.0 ],
					"presentation_rect" : [ 15.0, 15.0, 300.0, 70.0 ]
				}

			}
, 			{
				"box" : 				{
					"annotation" : "generates random numbers between 0 and 1",
					"fontname" : "Arial",
					"fontsize" : 12.0,
					"id" : "obj-6",
					"maxclass" : "newobj",
					"numinlets" : 0,
					"numoutlets" : 0,
					"patching_rect" : [ 340.0, 127.0, 107.0, 20.0 ],
					"text" : "rand.model rand.2"
				}

			}
, 			{
				"box" : 				{
					"annotation" : "generates random numbers between 0 and 1",
					"fontname" : "Arial",
					"fontsize" : 12.0,
					"id" : "obj-1",
					"maxclass" : "newobj",
					"numinlets" : 0,
					"numoutlets" : 0,
					"patching_rect" : [ 340.0, 45.0, 108.0, 20.0 ],
					"text" : "rand.model rand.1"
				}

			}
 ],
		"lines" : [ 			{
				"patchline" : 				{
					"destination" : [ "obj-5", 0 ],
					"disabled" : 0,
					"hidden" : 0,
					"source" : [ "obj-10", 0 ]
				}

			}
, 			{
				"patchline" : 				{
					"destination" : [ "obj-11", 0 ],
					"disabled" : 0,
					"hidden" : 0,
					"source" : [ "obj-12", 0 ]
				}

			}
, 			{
				"patchline" : 				{
					"destination" : [ "obj-20", 0 ],
					"disabled" : 0,
					"hidden" : 0,
					"source" : [ "obj-21", 0 ]
				}

			}
, 			{
				"patchline" : 				{
					"destination" : [ "obj-10", 0 ],
					"disabled" : 0,
					"hidden" : 0,
					"source" : [ "obj-22", 1 ]
				}

			}
, 			{
				"patchline" : 				{
					"destination" : [ "obj-12", 0 ],
					"disabled" : 0,
					"hidden" : 0,
					"source" : [ "obj-22", 1 ]
				}

			}
, 			{
				"patchline" : 				{
					"destination" : [ "obj-21", 0 ],
					"disabled" : 0,
					"hidden" : 0,
					"source" : [ "obj-22", 1 ]
				}

			}
, 			{
				"patchline" : 				{
					"destination" : [ "obj-4", 0 ],
					"disabled" : 0,
					"hidden" : 0,
					"source" : [ "obj-3", 1 ]
				}

			}
, 			{
				"patchline" : 				{
					"destination" : [ "obj-36", 0 ],
					"disabled" : 0,
					"hidden" : 0,
					"source" : [ "obj-35", 0 ]
				}

			}
, 			{
				"patchline" : 				{
					"destination" : [ "obj-22", 0 ],
					"disabled" : 0,
					"hidden" : 0,
					"source" : [ "obj-36", 0 ]
				}

			}
, 			{
				"patchline" : 				{
					"destination" : [ "obj-41", 0 ],
					"disabled" : 0,
					"hidden" : 0,
					"source" : [ "obj-38", 0 ]
				}

			}
, 			{
				"patchline" : 				{
					"destination" : [ "obj-7", 1 ],
					"disabled" : 0,
					"hidden" : 0,
					"source" : [ "obj-4", 0 ]
				}

			}
, 			{
				"patchline" : 				{
					"destination" : [ "obj-7", 0 ],
					"disabled" : 0,
					"hidden" : 0,
					"source" : [ "obj-4", 0 ]
				}

			}
 ],
		"dependency_cache" : [ 			{
				"name" : "rand.model.maxpat",
				"bootpath" : "/Volumes/data/RENAUD/GITs/didatools/max-package/patchers/rand",
				"patcherrelativepath" : "./patchers/rand",
				"type" : "JSON",
				"implicit" : 1
			}
, 			{
				"name" : "contains.maxpat",
				"bootpath" : "/Volumes/data/RENAUD/GITs/didatools/max-package/patchers/namespace-utility",
				"patcherrelativepath" : "./patchers/namespace-utility",
				"type" : "JSON",
				"implicit" : 1
			}
, 			{
				"name" : "rand.view.maxpat",
				"bootpath" : "/Volumes/data/RENAUD/GITs/didatools/max-package/patchers/rand",
				"patcherrelativepath" : "./patchers/rand",
				"type" : "JSON",
				"implicit" : 1
			}
, 			{
				"name" : "jtm-view.maxpat",
				"bootpath" : "/Volumes/data/RENAUD/GITs/didatools/max-package/patchers",
				"patcherrelativepath" : "./patchers",
				"type" : "JSON",
				"implicit" : 1
			}
, 			{
				"name" : "sine.model.maxpat",
				"bootpath" : "/Volumes/data/RENAUD/GITs/didatools/max-package/patchers/sine",
				"patcherrelativepath" : "./patchers/sine",
				"type" : "JSON",
				"implicit" : 1
			}
, 			{
				"name" : "sine.view.maxpat",
				"bootpath" : "/Volumes/data/RENAUD/GITs/didatools/max-package/patchers/sine",
				"patcherrelativepath" : "./patchers/sine",
				"type" : "JSON",
				"implicit" : 1
			}
, 			{
				"name" : "slider.view.maxpat",
				"bootpath" : "/Volumes/data/RENAUD/GITs/didatools/max-package/patchers/slider",
				"patcherrelativepath" : "./patchers/slider",
				"type" : "JSON",
				"implicit" : 1
			}
, 			{
				"name" : "slider.model.maxpat",
				"bootpath" : "/Volumes/data/RENAUD/GITs/didatools/max-package/patchers/slider",
				"patcherrelativepath" : "./patchers/slider",
				"type" : "JSON",
				"implicit" : 1
			}
, 			{
				"name" : "j.makemodelmenu.maxpat",
				"bootpath" : "/Volumes/data/RENAUD/GITs/didatools/max-package/patchers/namespace-utility",
				"patcherrelativepath" : "./patchers/namespace-utility",
				"type" : "JSON",
				"implicit" : 1
			}
, 			{
				"name" : "j.makemessagemenu.maxpat",
				"bootpath" : "/Volumes/data/RENAUD/GITs/didatools/max-package/patchers/namespace-utility",
				"patcherrelativepath" : "./patchers/namespace-utility",
				"type" : "JSON",
				"implicit" : 1
			}
, 			{
				"name" : "j.makeparametermenu.maxpat",
				"bootpath" : "/Volumes/data/RENAUD/GITs/didatools/max-package/patchers/namespace-utility",
				"patcherrelativepath" : "./patchers/namespace-utility",
				"type" : "JSON",
				"implicit" : 1
			}
, 			{
				"name" : "j.makereturnmenu.maxpat",
				"bootpath" : "/Volumes/data/RENAUD/GITs/didatools/max-package/patchers/namespace-utility",
				"patcherrelativepath" : "./patchers/namespace-utility",
				"type" : "JSON",
				"implicit" : 1
			}
, 			{
				"name" : "polymaper.model.maxpat",
				"bootpath" : "/Volumes/data/RENAUD/GITs/RTVI/max-package/patchers",
				"patcherrelativepath" : "../../RTVI/max-package/patchers",
				"type" : "JSON",
				"implicit" : 1
			}
, 			{
				"name" : "polymap.maxpat",
				"bootpath" : "/Volumes/data/RENAUD/GITs/didatools/max-package/patchers/polymap",
				"patcherrelativepath" : "./patchers/polymap",
				"type" : "JSON",
				"implicit" : 1
			}
, 			{
				"name" : "j.return.mxo",
				"type" : "iLaX"
			}
, 			{
				"name" : "j.parameter.mxo",
				"type" : "iLaX"
			}
, 			{
				"name" : "j.model.mxo",
				"type" : "iLaX"
			}
, 			{
				"name" : "j.init.mxo",
				"type" : "iLaX"
			}
, 			{
				"name" : "j.message.mxo",
				"type" : "iLaX"
			}
, 			{
				"name" : "j.send.mxo",
				"type" : "iLaX"
			}
, 			{
				"name" : "j.remote.mxo",
				"type" : "iLaX"
			}
, 			{
				"name" : "j.view.mxo",
				"type" : "iLaX"
			}
, 			{
				"name" : "j.namespace.mxo",
				"type" : "iLaX"
			}
, 			{
				"name" : "j.receive.mxo",
				"type" : "iLaX"
			}
, 			{
				"name" : "j.map.mxo",
				"type" : "iLaX"
			}
, 			{
				"name" : "j.parameterArray.mxo",
				"type" : "iLaX"
			}
 ]
	}

}
